<mxfile host="app.diagrams.net" agent="Mozilla/5.0 (Windows NT 10.0; Win64; x64) AppleWebKit/537.36 (KHTML, like Gecko) Chrome/131.0.0.0 Safari/537.36" version="26.0.4">
  <diagram id="6a731a19-8d31-9384-78a2-239565b7b9f0" name="Page-1">
    <mxGraphModel dx="926" dy="1320" grid="1" gridSize="10" guides="1" tooltips="1" connect="1" arrows="1" fold="1" page="1" pageScale="1" pageWidth="1169" pageHeight="827" background="none" math="0" shadow="0">
      <root>
        <mxCell id="0" />
        <mxCell id="1" parent="0" />
        <mxCell id="2" value="start" style="shape=mxgraph.flowchart.terminator;strokeWidth=2;gradientColor=none;gradientDirection=north;fontStyle=0;html=1;" parent="1" vertex="1">
          <mxGeometry x="260" y="-80" width="120" height="40" as="geometry" />
        </mxCell>
        <mxCell id="4" value="landing page" style="shape=mxgraph.flowchart.data;strokeWidth=2;gradientColor=none;gradientDirection=north;fontStyle=0;html=1;" parent="1" vertex="1">
          <mxGeometry x="240.5" y="510" width="159" height="80" as="geometry" />
        </mxCell>
        <mxCell id="5" value="login" style="shape=mxgraph.flowchart.data;strokeWidth=2;gradientColor=none;gradientDirection=north;fontStyle=0;html=1;" parent="1" vertex="1">
          <mxGeometry x="240.5" y="280" width="159" height="80" as="geometry" />
        </mxCell>
        <mxCell id="6" value="correct&amp;nbsp;&lt;div&gt;password?&lt;/div&gt;" style="shape=mxgraph.flowchart.decision;strokeWidth=2;gradientColor=none;gradientDirection=north;fontStyle=0;html=1;" parent="1" vertex="1">
          <mxGeometry x="271" y="407" width="98" height="57" as="geometry" />
        </mxCell>
        <mxCell id="7" style="fontStyle=1;strokeColor=#003366;strokeWidth=1;html=1;entryX=0.5;entryY=0;entryDx=0;entryDy=0;entryPerimeter=0;" parent="1" target="N2czhA5k1ha6jcuZvPGs-42" edge="1">
          <mxGeometry relative="1" as="geometry">
            <mxPoint x="319.58" y="-40" as="sourcePoint" />
            <mxPoint x="319.5800000000002" y="110" as="targetPoint" />
          </mxGeometry>
        </mxCell>
        <mxCell id="8" style="fontStyle=1;strokeColor=#003366;strokeWidth=1;html=1;" parent="1" target="5" edge="1">
          <mxGeometry relative="1" as="geometry">
            <mxPoint x="320" y="230" as="sourcePoint" />
          </mxGeometry>
        </mxCell>
        <mxCell id="9" style="entryX=0.5;entryY=0;entryPerimeter=0;fontStyle=1;strokeColor=#003366;strokeWidth=1;html=1;" parent="1" source="5" target="6" edge="1">
          <mxGeometry relative="1" as="geometry" />
        </mxCell>
        <mxCell id="11" value="yes" style="text;fontStyle=0;html=1;strokeColor=none;gradientColor=none;fillColor=none;strokeWidth=2;" parent="1" vertex="1">
          <mxGeometry x="329" y="464" width="40" height="26" as="geometry" />
        </mxCell>
        <mxCell id="13" value="logout" style="shape=mxgraph.flowchart.data;strokeWidth=2;gradientColor=none;gradientDirection=north;fontStyle=0;html=1;" parent="1" vertex="1">
          <mxGeometry x="240.5" y="640" width="159" height="80" as="geometry" />
        </mxCell>
        <mxCell id="14" value="no" style="text;fontStyle=0;html=1;strokeColor=none;gradientColor=none;fillColor=none;strokeWidth=2;align=center;" parent="1" vertex="1">
          <mxGeometry x="410" y="407" width="40" height="26" as="geometry" />
        </mxCell>
        <mxCell id="17" value="" style="edgeStyle=elbowEdgeStyle;elbow=horizontal;fontStyle=1;strokeColor=#003366;strokeWidth=1;html=1;" parent="1" source="4" target="13" edge="1">
          <mxGeometry width="100" height="100" as="geometry">
            <mxPoint y="100" as="sourcePoint" />
            <mxPoint x="100" as="targetPoint" />
          </mxGeometry>
        </mxCell>
        <mxCell id="40" value="end" style="shape=mxgraph.flowchart.terminator;strokeWidth=2;gradientColor=none;gradientDirection=north;fontStyle=0;html=1;" parent="1" vertex="1">
          <mxGeometry x="260" y="770" width="120" height="30" as="geometry" />
        </mxCell>
        <mxCell id="AqN8rYxH1uLgsxo2_pCf-59" value="" style="endArrow=classic;html=1;rounded=0;exitX=0.5;exitY=1;exitDx=0;exitDy=0;exitPerimeter=0;entryX=0.5;entryY=0;entryDx=0;entryDy=0;entryPerimeter=0;" parent="1" source="13" target="40" edge="1">
          <mxGeometry width="50" height="50" relative="1" as="geometry">
            <mxPoint x="330" y="710" as="sourcePoint" />
            <mxPoint x="380" y="660" as="targetPoint" />
          </mxGeometry>
        </mxCell>
        <mxCell id="N2czhA5k1ha6jcuZvPGs-41" value="" style="shape=parallelogram;html=1;strokeWidth=2;perimeter=parallelogramPerimeter;whiteSpace=wrap;rounded=1;arcSize=12;size=0.23;" parent="1" vertex="1">
          <mxGeometry x="240" y="150" width="160" height="80" as="geometry" />
        </mxCell>
        <object label="" id="N2czhA5k1ha6jcuZvPGs-42">
          <mxCell style="strokeWidth=2;html=1;shape=mxgraph.flowchart.decision;whiteSpace=wrap;strokeColor=default;" parent="1" vertex="1">
            <mxGeometry x="280" y="20" width="80" height="80" as="geometry" />
          </mxCell>
        </object>
        <mxCell id="N2czhA5k1ha6jcuZvPGs-44" value="registered?" style="text;strokeColor=none;align=center;fillColor=none;html=1;verticalAlign=middle;whiteSpace=wrap;rounded=0;" parent="1" vertex="1">
          <mxGeometry x="290" y="45" width="60" height="30" as="geometry" />
        </mxCell>
        <mxCell id="N2czhA5k1ha6jcuZvPGs-45" value="" style="endArrow=classic;html=1;rounded=0;exitX=0.5;exitY=1;exitDx=0;exitDy=0;exitPerimeter=0;" parent="1" source="N2czhA5k1ha6jcuZvPGs-42" edge="1">
          <mxGeometry width="50" height="50" relative="1" as="geometry">
            <mxPoint x="280" y="90" as="sourcePoint" />
            <mxPoint x="320" y="150" as="targetPoint" />
          </mxGeometry>
        </mxCell>
        <mxCell id="N2czhA5k1ha6jcuZvPGs-46" value="yes" style="text;strokeColor=none;align=center;fillColor=none;html=1;verticalAlign=middle;whiteSpace=wrap;rounded=0;" parent="1" vertex="1">
          <mxGeometry x="220" y="30" width="60" height="30" as="geometry" />
        </mxCell>
        <mxCell id="N2czhA5k1ha6jcuZvPGs-47" value="no" style="text;strokeColor=none;align=center;fillColor=none;html=1;verticalAlign=middle;whiteSpace=wrap;rounded=0;" parent="1" vertex="1">
          <mxGeometry x="1330" y="30" width="60" height="30" as="geometry" />
        </mxCell>
        <mxCell id="N2czhA5k1ha6jcuZvPGs-49" value="no" style="text;strokeColor=none;align=center;fillColor=none;html=1;verticalAlign=middle;whiteSpace=wrap;rounded=0;" parent="1" vertex="1">
          <mxGeometry x="309" y="100" width="60" height="40" as="geometry" />
        </mxCell>
        <mxCell id="N2czhA5k1ha6jcuZvPGs-50" value="" style="endArrow=classic;html=1;rounded=0;exitX=0;exitY=0.5;exitDx=0;exitDy=0;exitPerimeter=0;entryX=0.095;entryY=0.5;entryDx=0;entryDy=0;entryPerimeter=0;" parent="1" source="N2czhA5k1ha6jcuZvPGs-42" target="5" edge="1">
          <mxGeometry width="50" height="50" relative="1" as="geometry">
            <mxPoint x="280" y="200" as="sourcePoint" />
            <mxPoint x="160" y="60" as="targetPoint" />
            <Array as="points">
              <mxPoint x="160" y="60" />
              <mxPoint x="160" y="320" />
            </Array>
          </mxGeometry>
        </mxCell>
        <mxCell id="N2czhA5k1ha6jcuZvPGs-51" value="" style="endArrow=classic;html=1;rounded=0;entryX=0.5;entryY=0;entryDx=0;entryDy=0;entryPerimeter=0;exitX=0.5;exitY=1;exitDx=0;exitDy=0;exitPerimeter=0;" parent="1" source="6" target="4" edge="1">
          <mxGeometry width="50" height="50" relative="1" as="geometry">
            <mxPoint x="260" y="510" as="sourcePoint" />
            <mxPoint x="310" y="460" as="targetPoint" />
          </mxGeometry>
        </mxCell>
        <mxCell id="N2czhA5k1ha6jcuZvPGs-52" value="" style="endArrow=classic;html=1;rounded=0;exitX=1;exitY=0.5;exitDx=0;exitDy=0;exitPerimeter=0;entryX=0.905;entryY=0.5;entryDx=0;entryDy=0;entryPerimeter=0;" parent="1" source="6" target="5" edge="1">
          <mxGeometry width="50" height="50" relative="1" as="geometry">
            <mxPoint x="250" y="340" as="sourcePoint" />
            <mxPoint x="300" y="290" as="targetPoint" />
            <Array as="points">
              <mxPoint x="520" y="436" />
              <mxPoint x="520" y="320" />
            </Array>
          </mxGeometry>
        </mxCell>
        <mxCell id="N2czhA5k1ha6jcuZvPGs-53" value="registration /signin(google, facebook)" style="text;strokeColor=none;align=center;fillColor=none;html=1;verticalAlign=middle;whiteSpace=wrap;rounded=0;" parent="1" vertex="1">
          <mxGeometry x="255" y="175" width="130" height="30" as="geometry" />
        </mxCell>
        <mxCell id="N2czhA5k1ha6jcuZvPGs-54" value="" style="endArrow=classic;html=1;rounded=0;entryX=0.89;entryY=0.613;entryDx=0;entryDy=0;entryPerimeter=0;" parent="1" source="N2czhA5k1ha6jcuZvPGs-41" edge="1">
          <mxGeometry width="50" height="50" relative="1" as="geometry">
            <mxPoint x="397.99" y="150" as="sourcePoint" />
            <mxPoint x="380" y="559.04" as="targetPoint" />
            <Array as="points">
              <mxPoint x="560" y="190" />
              <mxPoint x="557.99" y="559" />
            </Array>
          </mxGeometry>
        </mxCell>
        <mxCell id="N2czhA5k1ha6jcuZvPGs-55" value="signin" style="text;strokeColor=none;align=center;fillColor=none;html=1;verticalAlign=middle;whiteSpace=wrap;rounded=0;" parent="1" vertex="1">
          <mxGeometry x="470" y="160" width="60" height="30" as="geometry" />
        </mxCell>
      </root>
    </mxGraphModel>
  </diagram>
</mxfile>
